<svg width="772" height="703" viewBox="0 0 772 703" fill="none" xmlns="http://www.w3.org/2000/svg">
<g style="mix-blend-mode:screen" clip-path="url(#clip0_717_5)">
<g style="mix-blend-mode:screen" opacity="0.3">
<path d="M385.544 170.028C447.254 237.514 515.923 316.042 544.38 400.779C550.412 418.997 575.467 421.343 589.232 409.198C677.233 331.223 768.173 256.146 852.309 174.996C867.311 160.505 854.319 132.351 830.811 135.111C779 141.46 727.189 142.564 674.913 142.84C660.375 142.978 649.394 155.123 649.858 167.543C651.405 204.806 657.437 240.55 665.015 276.847C636.867 301.551 608.564 326.254 580.416 350.958C545.617 275.467 485.145 206.876 429.313 144.496C394.978 106.267 356.004 62.9323 311.771 26.2218C324.917 19.0453 336.826 9.66066 348.271 0H183.403C264.445 35.7444 330.176 109.58 385.544 170.028Z" fill="#05A52E"/>
</g>
<path opacity="0.5" d="M74.0729 10.8926C276.144 128.23 431.987 322.918 545.623 509.471C538.82 514.849 532.172 520.226 525.215 525.328C519.803 529.326 514.392 533.463 508.826 537.461C434.77 433.637 351.437 336.155 262.074 242.533C217.393 195.791 171.011 150.428 123.392 105.893C86.5961 71.4225 49.4905 25.7838 -3.69412 13.926C-8.79613 12.823 -12.9705 17.5109 -11.5791 21.7852C1.71711 62.3223 41.7602 88.7955 73.9183 118.716C99.583 142.707 124.784 166.974 149.521 191.793C176.268 170.697 218.012 204.202 191.728 227.366C190.337 228.607 188.946 229.71 187.554 230.951C198.84 242.671 210.436 254.115 221.568 265.973C311.703 361.111 394.727 461.764 468.938 567.243C462.908 571.794 456.879 576.482 450.694 581.17C445.283 584.065 440.181 587.236 434.924 590.408C430.595 584.065 423.174 579.791 412.043 581.17C302.736 594.544 193.893 593.579 83.8131 597.026C74.846 597.302 65.8788 602.403 62.0136 609.711C29.3917 671.068 -23.3291 726.496 -39.5628 793.782C-41.7273 802.607 -29.0496 807.846 -22.4015 801.504C8.36519 771.721 69.8986 642.527 115.662 643.768C201.778 646.249 289.285 642.665 375.092 633.702C336.904 666.104 302.581 703.332 270.423 736.01C236.41 770.48 199.459 807.157 166.991 846.039C110.096 826.322 35.8851 846.177 -19.7732 858.587C-36.1615 862.172 -37.5529 880.786 -27.1943 890.024C-10.3422 905.191 8.36519 918.289 28.3094 929.733H177.041C208.426 893.746 239.347 843.695 250.324 831.562C321.289 752.004 399.21 668.31 491.974 608.194C497.695 604.471 500.323 598.956 500.941 593.303C532.945 566.692 568.968 540.908 595.715 510.574C735.016 431.155 863.339 334.362 980.994 231.089C968.317 217.99 955.794 204.754 942.961 191.931C942.498 192.344 941.879 192.62 941.415 193.034C829.944 291.205 708.578 381.793 578.09 459.42C514.083 362.214 439.099 270.385 357.93 184.071C296.088 118.026 224.041 43.019 136.534 0H64.9512C66.0334 3.99856 68.9709 7.85923 74.0729 10.8926Z" fill="#989897"/>
</g>
<defs>
<clipPath id="clip0_717_5">
<rect width="772" height="703" fill="white"/>
</clipPath>
</defs>
</svg>
