<svg width="197" height="396" viewBox="0 0 197 396" fill="none" xmlns="http://www.w3.org/2000/svg">
<g clip-path="url(#clip0_18_59)">
<path d="M186.571 83.3272C213.65 116.401 243.784 154.886 256.271 196.414C258.918 205.342 269.913 206.492 275.953 200.54C314.571 162.326 354.477 125.532 391.398 85.7621C397.981 78.6603 392.28 64.8627 381.964 66.2154C359.228 69.3266 336.492 69.8677 313.553 70.003C307.173 70.0706 302.354 76.0226 302.558 82.1098C303.236 100.371 305.883 117.889 309.209 135.677C296.857 147.784 284.437 159.891 272.085 171.998C256.814 135.001 230.278 101.386 205.777 70.8146C190.711 52.0795 173.608 30.8419 154.197 12.8508C159.966 9.33373 165.192 4.7345 170.214 0H97.8664C133.429 17.5177 162.274 53.7028 186.571 83.3272Z" fill="#024D15"/>
<path d="M49.8155 5.34322C138.52 62.9012 206.931 158.403 256.814 249.914C253.828 252.552 250.91 255.19 247.856 257.692C245.48 259.654 243.105 261.683 240.662 263.644C208.153 212.714 171.572 164.896 132.344 118.971C112.73 96.0427 92.369 73.7906 71.4655 51.9442C55.3128 35.0353 39.0244 12.6479 15.6776 6.83121C13.438 6.29012 11.6055 8.58974 12.2163 10.6864C18.053 30.5713 35.631 43.5574 49.7476 58.2343C61.0138 70.003 72.0764 81.9068 82.9353 94.0813C94.6766 83.733 113.001 100.168 101.463 111.531C100.853 112.14 100.242 112.681 99.631 113.29C104.585 119.039 109.675 124.653 114.562 130.469C154.129 177.138 190.575 226.512 223.152 278.253C220.505 280.485 217.858 282.785 215.143 285.085C212.768 286.505 210.528 288.06 208.221 289.616C206.32 286.505 203.063 284.408 198.176 285.085C150.193 291.645 102.414 291.172 54.0912 292.863C50.1548 292.998 46.2185 295.5 44.5217 299.085C30.2015 329.183 7.05833 356.373 -0.0678632 389.379C-1.01802 393.707 4.54719 396.278 7.46554 393.166C20.9714 378.557 47.983 315.182 68.0721 315.791C105.875 317.009 144.288 315.25 181.955 310.854C165.192 326.748 150.125 345.01 136.008 361.039C121.077 377.948 104.857 395.939 90.6045 415.013C65.6288 405.341 33.052 415.08 8.6193 421.168C1.42524 422.926 0.814427 432.057 5.36162 436.589C12.7593 444.028 20.9714 450.454 29.7264 456.068H95.0159C108.793 438.415 122.367 413.863 127.186 407.911C158.337 368.885 192.543 327.83 233.264 298.341C235.775 296.515 236.929 293.81 237.2 291.036C251.249 277.983 267.063 265.335 278.804 250.455C339.953 211.497 396.284 164.017 447.932 113.357C442.367 106.932 436.87 100.439 431.236 94.1489C431.033 94.3518 430.761 94.4871 430.558 94.69C381.625 142.847 328.348 187.283 271.067 225.362C242.969 177.679 210.053 132.634 174.422 90.2937C147.275 57.8962 115.648 21.1023 77.2344 0H45.8112C46.2863 1.96144 47.5758 3.85524 49.8155 5.34322Z" fill="#767676" fill-opacity="0.2" style="mix-blend-mode:multiply"/>
</g>
<defs>
<clipPath id="clip0_18_59">
<rect width="448" height="456" fill="white"/>
</clipPath>
</defs>
</svg>
