<svg width="77" height="34" viewBox="0 0 77 34" fill="none" xmlns="http://www.w3.org/2000/svg">
<path d="M30.8125 27.9128C30.3689 28.3027 29.9311 28.7013 29.4961 29.1041C25.8663 32.4646 20.7814 34.4243 15.7977 33.9226C7.17399 33.0523 0.404236 25.6018 0.404236 17.0057C0.404236 16.4595 0.430246 15.9147 0.485155 15.3728H7.31126C7.213 15.909 7.16243 16.4552 7.16243 17.0057C7.16243 22.6843 11.8182 27.3035 17.5418 27.3035C20.9982 27.3035 24.1323 25.1717 26.6798 23.0098L30.8125 27.9128Z" fill="#05A52E"/>
<path d="M41.8146 18.8465C38.5894 21.4672 35.3108 24.0148 32.1665 26.7257L28.0468 21.8356C28.187 21.7166 28.343 21.5847 28.5121 21.4414C30.4108 19.8386 34.0984 16.7505 37.5938 13.8374L41.8146 18.8465Z" fill="#031541"/>
<path d="M77 17.0058C77 17.4703 76.9812 17.9348 76.9436 18.3964C76.422 24.7617 72.1766 30.4346 66.2031 32.803C59.0908 35.6229 52.7531 32.9205 47.1726 28.3831C44.9791 26.5997 42.3449 24.5825 40.0633 22.7346L42.355 20.8752L42.8911 20.4408L45.5167 18.3104C47.5079 19.9935 52.152 23.9016 54.097 25.4011C56.1402 26.9781 58.7412 27.6175 61.2945 27.2018C66.219 26.4018 70.2403 22.0077 70.2403 17.0058C70.2403 13.5063 68.1813 10.1731 65.2768 8.26495C63.4879 7.08937 61.6644 6.71089 59.8755 6.86286C56.8049 7.12521 53.8369 8.95453 51.3139 11.0233C50.5669 11.6354 49.8213 12.2476 49.0757 12.8626L48.6407 12.3465L44.8404 7.83629C44.8982 7.78755 44.9546 7.74311 45.008 7.69867C45.0167 7.6915 45.0239 7.68576 45.0326 7.67859C48.7289 4.67084 52.2358 1.04518 57.1632 0.222278C63.8318 -0.89022 70.6941 2.2523 74.3167 7.8793C76.0651 10.596 77 13.7844 77 17.0058Z" fill="#05A52E"/>
<path d="M43.4391 8.98706L38.9781 12.6873L43.222 17.7236L47.6829 14.0234L43.4391 8.98706Z" fill="#031541"/>
</svg>
