<svg width="127" height="55" viewBox="0 0 127 55" fill="none" xmlns="http://www.w3.org/2000/svg">
<g clip-path="url(#clip0_18_86)">
<path d="M53.6774 45.1532C52.9731 45.784 52.2781 46.4287 51.5876 47.0803C45.8253 52.5163 37.753 55.6866 29.8413 54.8749C16.1512 53.4672 5.40425 41.4148 5.40425 27.5094C5.40425 26.6258 5.44555 25.7445 5.53271 24.8679H16.3692C16.2132 25.7353 16.1329 26.6188 16.1329 27.5094C16.1329 36.6954 23.5239 44.1675 32.6101 44.1675C38.0971 44.1675 43.0726 40.719 47.1168 37.2218L53.6774 45.1532Z" fill="white"/>
<path d="M71.1432 30.487C66.0232 34.7263 60.8183 38.8474 55.8268 43.2328L49.2868 35.3223C49.5093 35.1299 49.7571 34.9165 50.0255 34.6846C53.0397 32.0918 58.8937 27.0965 64.4427 22.384L71.1432 30.487Z" fill="#05A52E"/>
<path d="M127 27.5094C127 28.2608 126.97 29.0122 126.911 29.7589C126.082 40.0558 119.343 49.2325 109.86 53.0636C98.5692 57.6253 88.5081 53.2538 79.649 45.9138C76.1669 43.0289 71.9851 39.7659 68.363 36.7765L72.0011 33.7687L72.8522 33.066L77.0202 29.6198C80.1812 32.3424 87.5539 38.6643 90.6415 41.0901C93.8851 43.6411 98.0141 44.6754 102.067 44.0029C109.885 42.7088 116.269 35.6008 116.269 27.5094C116.269 21.8484 113 16.4565 108.389 13.3698C105.55 11.4681 102.655 10.8559 99.8148 11.1017C94.9403 11.5261 90.2286 14.4853 86.2234 17.8317C85.0374 18.822 83.8538 19.8123 82.6701 20.8072L81.9797 19.9723L75.9467 12.6764C76.0384 12.5975 76.1279 12.5256 76.2128 12.4537C76.2265 12.4421 76.238 12.4329 76.2518 12.4213C82.1196 7.55576 87.6869 1.69074 95.5092 0.359567C106.096 -1.44006 116.989 3.64343 122.74 12.7459C125.516 17.1406 127 22.2983 127 27.5094Z" fill="white"/>
<path d="M73.7221 14.5378L66.6403 20.5234L73.3774 28.6705L80.4592 22.6849L73.7221 14.5378Z" fill="#05A52E"/>
</g>
<defs>
<clipPath id="clip0_18_86">
<rect width="127" height="55" fill="white"/>
</clipPath>
</defs>
</svg>
